<svg xmlns="http://www.w3.org/2000/svg" xmlns:xlink="http://www.w3.org/1999/xlink" viewBox="0 0 442 98"><defs><clipPath id="b"><rect width="442" height="98"/></clipPath></defs><g id="a" clip-path="url(#b)"><rect width="442" height="98" fill="#fff"/><text transform="translate(115 65)" fill="#212d60" font-size="56" font-family="HelveticaNeue-Medium, Helvetica Neue" font-weight="500"><tspan x="0" y="0">Tensor</tspan><tspan y="0" fill="#6679c9">plane</tspan></text><g transform="translate(13 24)"><g transform="translate(0 46.337) rotate(-90)" fill="none"><path d="M8.189,4.7a1,1,0,0,1,1.958,0l8.147,39.142a1,1,0,0,1,0,.408L10.147,83.4a1,1,0,0,1-1.958,0L.042,44.253a1,1,0,0,1,0-.408Z" stroke="none"/><path d="M 9.16845703125 19.62979125976562 L 4.085723876953125 44.04967880249023 L 9.168457984924316 68.46955871582031 L 14.25119018554688 44.0496826171875 L 9.16845703125 19.62979125976562 M 9.16845703125 3.907447814941406 C 9.602721214294434 3.907447814941406 10.03698539733887 4.172859191894531 10.14747142791748 4.703681945800781 L 18.29450035095215 43.84590911865234 C 18.32247161865234 43.98030853271484 18.32247161865234 44.11903762817383 18.29450035095215 44.25344848632812 L 10.14747142791748 83.39567565917969 C 10.03698539733887 83.92649841308594 9.602721214294434 84.19190979003906 9.16845703125 84.19190979003906 C 8.734192848205566 84.19190979003906 8.299928665161133 83.92649841308594 8.18944263458252 83.39567565917969 L 0.04241371154785156 44.25344848632812 C 0.01444244384765625 44.11903762817383 0.01444244384765625 43.98030853271484 0.04241371154785156 43.84590911865234 L 8.18944263458252 4.703681945800781 C 8.299928665161133 4.172859191894531 8.734192848205566 3.907447814941406 9.16845703125 3.907447814941406 Z" stroke="none" fill="#d2d9f7"/></g><g transform="translate(0 39.337) rotate(-90)" fill="none"><path d="M8.189,4.7a1,1,0,0,1,1.958,0l8.147,39.142a1,1,0,0,1,0,.408L10.147,83.4a1,1,0,0,1-1.958,0L.042,44.253a1,1,0,0,1,0-.408Z" stroke="none"/><path d="M 9.16845703125 19.62979125976562 L 4.085723876953125 44.04967880249023 L 9.168457984924316 68.46955871582031 L 14.25119018554688 44.0496826171875 L 9.16845703125 19.62979125976562 M 9.16845703125 3.907447814941406 C 9.602721214294434 3.907447814941406 10.03698539733887 4.172859191894531 10.14747142791748 4.703681945800781 L 18.29450035095215 43.84590911865234 C 18.32247161865234 43.98030853271484 18.32247161865234 44.11903762817383 18.29450035095215 44.25344848632812 L 10.14747142791748 83.39567565917969 C 10.03698539733887 83.92649841308594 9.602721214294434 84.19190979003906 9.16845703125 84.19190979003906 C 8.734192848205566 84.19190979003906 8.299928665161133 83.92649841308594 8.18944263458252 83.39567565917969 L 0.04241371154785156 44.25344848632812 C 0.01444244384765625 44.11903762817383 0.01444244384765625 43.98030853271484 0.04241371154785156 43.84590911865234 L 8.18944263458252 4.703681945800781 C 8.299928665161133 4.172859191894531 8.734192848205566 3.907447814941406 9.16845703125 3.907447814941406 Z" stroke="none" fill="#9faeef"/></g><g transform="translate(0 32.337) rotate(-90)" fill="none"><path d="M8.189,4.7a1,1,0,0,1,1.958,0l8.147,39.142a1,1,0,0,1,0,.408L10.147,83.4a1,1,0,0,1-1.958,0L.042,44.253a1,1,0,0,1,0-.408Z" stroke="none"/><path d="M 9.16845703125 19.62979125976562 L 4.085723876953125 44.04967880249023 L 9.168457984924316 68.46955871582031 L 14.25119018554688 44.0496826171875 L 9.16845703125 19.62979125976562 M 9.16845703125 3.907447814941406 C 9.602721214294434 3.907447814941406 10.03698539733887 4.172859191894531 10.14747142791748 4.703681945800781 L 18.29450035095215 43.84590911865234 C 18.32247161865234 43.98030853271484 18.32247161865234 44.11903762817383 18.29450035095215 44.25344848632812 L 10.14747142791748 83.39567565917969 C 10.03698539733887 83.92649841308594 9.602721214294434 84.19190979003906 9.16845703125 84.19190979003906 C 8.734192848205566 84.19190979003906 8.299928665161133 83.92649841308594 8.18944263458252 83.39567565917969 L 0.04241371154785156 44.25344848632812 C 0.01444244384765625 44.11903762817383 0.01444244384765625 43.98030853271484 0.04241371154785156 43.84590911865234 L 8.18944263458252 4.703681945800781 C 8.299928665161133 4.172859191894531 8.734192848205566 3.907447814941406 9.16845703125 3.907447814941406 Z" stroke="none" fill="#6679c9"/></g><g transform="translate(0 25.337) rotate(-90)" fill="none"><path d="M8.189,4.7a1,1,0,0,1,1.958,0l8.147,39.142a1,1,0,0,1,0,.408L10.147,83.4a1,1,0,0,1-1.958,0L.042,44.253a1,1,0,0,1,0-.408Z" stroke="none"/><path d="M 9.16845703125 19.62979125976562 L 4.085723876953125 44.04967880249023 L 9.168457984924316 68.46955871582031 L 14.25119018554688 44.0496826171875 L 9.16845703125 19.62979125976562 M 9.16845703125 3.907447814941406 C 9.602721214294434 3.907447814941406 10.03698539733887 4.172859191894531 10.14747142791748 4.703681945800781 L 18.29450035095215 43.84590911865234 C 18.32247161865234 43.98030853271484 18.32247161865234 44.11903762817383 18.29450035095215 44.25344848632812 L 10.14747142791748 83.39567565917969 C 10.03698539733887 83.92649841308594 9.602721214294434 84.19190979003906 9.16845703125 84.19190979003906 C 8.734192848205566 84.19190979003906 8.299928665161133 83.92649841308594 8.18944263458252 83.39567565917969 L 0.04241371154785156 44.25344848632812 C 0.01444244384765625 44.11903762817383 0.01444244384765625 43.98030853271484 0.04241371154785156 43.84590911865234 L 8.18944263458252 4.703681945800781 C 8.299928665161133 4.172859191894531 8.734192848205566 3.907447814941406 9.16845703125 3.907447814941406 Z" stroke="none" fill="#3e5098"/></g><g transform="translate(0 18.337) rotate(-90)" fill="none"><path d="M8.189,4.7a1,1,0,0,1,1.958,0l8.147,39.142a1,1,0,0,1,0,.408L10.147,83.4a1,1,0,0,1-1.958,0L.042,44.253a1,1,0,0,1,0-.408Z" stroke="none"/><path d="M 9.16845703125 19.62979125976562 L 4.085723876953125 44.04967880249023 L 9.168457984924316 68.46955871582031 L 14.25119018554688 44.0496826171875 L 9.16845703125 19.62979125976562 M 9.16845703125 3.907447814941406 C 9.602721214294434 3.907447814941406 10.03698539733887 4.172859191894531 10.14747142791748 4.703681945800781 L 18.29450035095215 43.84590911865234 C 18.32247161865234 43.98030853271484 18.32247161865234 44.11903762817383 18.29450035095215 44.25344848632812 L 10.14747142791748 83.39567565917969 C 10.03698539733887 83.92649841308594 9.602721214294434 84.19190979003906 9.16845703125 84.19190979003906 C 8.734192848205566 84.19190979003906 8.299928665161133 83.92649841308594 8.18944263458252 83.39567565917969 L 0.04241371154785156 44.25344848632812 C 0.01444244384765625 44.11903762817383 0.01444244384765625 43.98030853271484 0.04241371154785156 43.84590911865234 L 8.18944263458252 4.703681945800781 C 8.299928665161133 4.172859191894531 8.734192848205566 3.907447814941406 9.16845703125 3.907447814941406 Z" stroke="none" fill="#212d60"/></g></g></g></svg>
