<svg xmlns="http://www.w3.org/2000/svg" xmlns:xlink="http://www.w3.org/1999/xlink" width="439" height="64" viewBox="0 0 439 64">
  <defs>
    <clipPath id="clip-Artboard_2">
      <rect width="439" height="64"/>
    </clipPath>
  </defs>
  <g id="Artboard_2" data-name="Artboard – 2" clip-path="url(#clip-Artboard_2)">
    <rect width="439" height="64" fill="#fff"/>
    <text id="Tensorplane" transform="translate(115 50)" fill="#212d60" font-size="56" font-family="HelveticaNeue-Medium, Helvetica Neue" font-weight="500"><tspan x="0" y="0">Tensor</tspan><tspan y="0" fill="#6679c9">plane</tspan></text>
    <g id="Component_1_1" data-name="Component 1 – 1" transform="translate(12.506 9)">
      <g id="Polygon_5" data-name="Polygon 5" transform="translate(0 46.337) rotate(-90)" fill="#d0d9ff">
        <path d="M9.168,0l9.168,44.05L9.168,88.1,0,44.05Z" stroke="none"/>
        <path d="M 9.168457984924316 4.907470703125 L 1.02143669128418 44.04967880249023 L 9.168457984924316 83.19188690185547 L 17.31547927856445 44.04967880249023 L 9.168457984924316 4.907470703125 M 9.168457984924316 0 L 18.33691596984863 44.04967880249023 L 9.168457984924316 88.09935760498047 L 0 44.04967880249023 L 9.168457984924316 0 Z" stroke="none" fill="rgba(0,0,0,0)"/>
      </g>
      <g id="Polygon_4" data-name="Polygon 4" transform="translate(0 39.337) rotate(-90)" fill="#9faeef">
        <path d="M9.168,0l9.168,44.05L9.168,88.1,0,44.05Z" stroke="none"/>
        <path d="M 9.168457984924316 4.907470703125 L 1.02143669128418 44.04967880249023 L 9.168457984924316 83.19188690185547 L 17.31547927856445 44.04967880249023 L 9.168457984924316 4.907470703125 M 9.168457984924316 0 L 18.33691596984863 44.04967880249023 L 9.168457984924316 88.09935760498047 L 0 44.04967880249023 L 9.168457984924316 0 Z" stroke="none" fill="rgba(0,0,0,0)"/>
      </g>
      <g id="Polygon_3" data-name="Polygon 3" transform="translate(0 32.337) rotate(-90)" fill="#6679c9">
        <path d="M9.168,0l9.168,44.05L9.168,88.1,0,44.05Z" stroke="none"/>
        <path d="M 9.168457984924316 4.907470703125 L 1.02143669128418 44.04965591430664 L 9.168457984924316 83.19188690185547 L 17.31547927856445 44.04967880249023 L 9.168457984924316 4.907470703125 M 9.168457984924316 0 L 18.33691596984863 44.04967880249023 L 9.168457984924316 88.09935760498047 L 0 44.04965591430664 L 9.168457984924316 0 Z" stroke="none" fill="rgba(0,0,0,0)"/>
      </g>
      <g id="Polygon_1" data-name="Polygon 1" transform="translate(0 25.337) rotate(-90)" fill="#3e5098">
        <path d="M9.168,0l9.168,44.05L9.168,88.1,0,44.05Z" stroke="none"/>
        <path d="M 9.168457984924316 4.907470703125 L 1.02143669128418 44.04965591430664 L 9.168457984924316 83.19188690185547 L 17.31547927856445 44.04967880249023 L 9.168457984924316 4.907470703125 M 9.168457984924316 0 L 18.33691596984863 44.04967880249023 L 9.168457984924316 88.09935760498047 L 0 44.04965591430664 L 9.168457984924316 0 Z" stroke="none" fill="rgba(0,0,0,0)"/>
      </g>
      <g id="Polygon_2" data-name="Polygon 2" transform="translate(0 18.337) rotate(-90)" fill="#212d60">
        <path d="M9.168,0l9.168,44.05L9.168,88.1,0,44.05Z" stroke="none"/>
        <path d="M 9.168457984924316 4.907470703125 L 1.02143669128418 44.04965591430664 L 9.168457984924316 83.19188690185547 L 17.31547927856445 44.04967880249023 L 9.168457984924316 4.907470703125 M 9.168457984924316 0 L 18.33691596984863 44.04967880249023 L 9.168457984924316 88.09935760498047 L 0 44.04965591430664 L 9.168457984924316 0 Z" stroke="none" fill="rgba(0,0,0,0)"/>
      </g>
    </g>
  </g>
</svg>
