<svg xmlns="http://www.w3.org/2000/svg" xmlns:xlink="http://www.w3.org/1999/xlink" viewBox="0 0 1285 795"><defs><clipPath id="b"><rect width="1285" height="795"/></clipPath></defs><g id="a" clip-path="url(#b)"><rect width="1285" height="795" fill="#fff"/><rect width="281" height="353" rx="7" transform="translate(674 244)" fill="rgba(95,127,178,0.21)"/><line x1="1" y1="389" transform="translate(814.5 271.5)" fill="none" stroke="#395174" stroke-width="4"/><rect width="820" height="146" rx="7" transform="translate(405 607)" fill="rgba(217,109,109,0.21)"/><rect width="820" height="179" rx="7" transform="translate(405 43)" fill="rgba(217,109,109,0.21)"/><g transform="translate(451 643)" fill="none" stroke="#395174" stroke-width="4"><rect width="223" height="92" rx="7" stroke="none"/><rect x="2" y="2" width="219" height="88" rx="5" fill="none"/></g><g transform="translate(451 643)" fill="#fff" stroke="#395174" stroke-width="4"><rect width="223" height="92" rx="7" stroke="none"/><rect x="2" y="2" width="219" height="88" rx="5" fill="none"/></g><g transform="translate(703 643)" fill="#fff" stroke="#395174" stroke-width="4"><rect width="223" height="92" rx="7" stroke="none"/><rect x="2" y="2" width="219" height="88" rx="5" fill="none"/></g><g transform="translate(955 643)" fill="#fff" stroke="#395174" stroke-width="4"><rect width="223" height="92" rx="7" stroke="none"/><rect x="2" y="2" width="219" height="88" rx="5" fill="none"/></g><g transform="translate(703 491)" fill="#fff" stroke="#395174" stroke-width="4"><rect width="223" height="92" rx="7" stroke="none"/><rect x="2" y="2" width="219" height="88" rx="5" fill="none"/></g><text transform="translate(734 544)" fill="#404040" font-size="20" font-family="Arial-BoldMT, Arial" font-weight="700"><tspan x="0" y="0">AbstractBackend</tspan></text><g transform="translate(451 63)" fill="#fff" stroke="#395174" stroke-width="4"><rect width="223" height="92" rx="7" stroke="none"/><rect x="2" y="2" width="219" height="88" rx="5" fill="none"/></g><text transform="translate(483 116)" fill="#404040" font-size="20" font-family="Arial-BoldMT, Arial" font-weight="700"><tspan x="0" y="0">PyTorch Tensors</tspan></text><g transform="translate(703 63)" fill="#fff" stroke="#395174" stroke-width="4"><rect width="223" height="92" rx="7" stroke="none"/><rect x="2" y="2" width="219" height="88" rx="5" fill="none"/></g><g transform="translate(955 63)" fill="#fff" stroke="#395174" stroke-width="4"><rect width="223" height="92" rx="7" stroke="none"/><rect x="2" y="2" width="219" height="88" rx="5" fill="none"/></g><g transform="translate(703 339)" fill="#fff" stroke="#395174" stroke-width="4"><rect width="223" height="92" rx="7" stroke="none"/><rect x="2" y="2" width="219" height="88" rx="5" fill="none"/></g><text transform="translate(761 390)" fill="#404040" font-size="20" font-family="Arial-BoldMT, Arial" font-weight="700"><tspan x="0" y="0">DataEngine</tspan></text><g transform="translate(703 187)" fill="#fff" stroke="#395174" stroke-width="4"><rect width="223" height="92" rx="7" stroke="none"/><rect x="2" y="2" width="219" height="88" rx="5" fill="none"/></g><text transform="translate(779 240)" fill="#404040" font-size="20" font-family="Arial-BoldMT, Arial" font-weight="700"><tspan x="0" y="0">Dataset</tspan></text><line y1="18" transform="translate(562.5 625.5)" fill="none" stroke="#395174" stroke-width="4"/><line x1="505" transform="translate(562.5 627.5)" fill="none" stroke="#395174" stroke-width="4"/><line y1="18" transform="translate(1067.5 625.5)" fill="none" stroke="#395174" stroke-width="4"/><text transform="translate(747 116)" fill="#404040" font-size="20" font-family="Arial-BoldMT, Arial" font-weight="700"><tspan x="0" y="0">NumPy Arrays</tspan></text><text transform="translate(971 116)" fill="#404040" font-size="20" font-family="Arial-BoldMT, Arial" font-weight="700"><tspan x="0" y="0">TensorFlow Tensors</tspan></text><text transform="translate(481 696)" fill="#404040" font-size="20" font-family="Arial-BoldMT, Arial" font-weight="700"><tspan x="0" y="0">PyTorchBackend</tspan></text><text transform="translate(741 696)" fill="#404040" font-size="20" font-family="Arial-BoldMT, Arial" font-weight="700"><tspan x="0" y="0">NumPyBackend</tspan></text><text transform="translate(970 696)" fill="#404040" font-size="20" font-family="Arial-BoldMT, Arial" font-weight="700"><tspan x="0" y="0">TensorFlowBackend</tspan></text><text transform="translate(60 116)" fill="#404040" font-size="20" font-family="Arial-BoldMT, Arial" font-weight="700"><tspan x="0" y="0">User-end API for common</tspan><tspan x="0" y="23">data pipelines in deep </tspan><tspan x="0" y="46">learning and data science</tspan></text><text transform="translate(60 367)" fill="#404040" font-size="20" font-family="Arial-BoldMT, Arial" font-weight="700"><tspan x="0" y="0">Abstraction layer for storing, </tspan><tspan x="0" y="23">accessing, and manipulating</tspan><tspan x="0" y="46">AbstractTensor objects</tspan></text><text transform="translate(60 673)" fill="#404040" font-size="20" font-family="Arial-BoldMT, Arial" font-weight="700"><tspan x="0" y="0">Concrete backends for</tspan><tspan x="0" y="23">Tensor or array-like data </tspan><tspan x="0" y="46">structure libraries </tspan></text></g></svg>
