<svg xmlns="http://www.w3.org/2000/svg" xmlns:xlink="http://www.w3.org/1999/xlink" viewBox="0 0 1441 705"><defs><clipPath id="b"><rect width="1441" height="705"/></clipPath></defs><g id="a" clip-path="url(#b)"><rect width="1441" height="705" fill="#fff"/><text transform="translate(177 148)" fill="#404040" font-size="25" font-family="Arial-BoldMT, Arial" font-weight="700"><tspan x="0" y="0">inputs</tspan></text><text transform="translate(584 148)" fill="#404040" font-size="25" font-family="Arial-BoldMT, Arial" font-weight="700"><tspan x="0" y="0">masks</tspan></text><text transform="translate(813 148)" fill="#404040" font-size="25" font-family="Arial-BoldMT, Arial" font-weight="700"><tspan x="0" y="0">labels</tspan></text><text transform="translate(177 209)" fill="#404040" font-size="24" font-family="Menlo-Bold, Menlo" font-weight="700"><tspan x="0" y="0">0.12</tspan></text><text transform="translate(267 209)" fill="#404040" font-size="24" font-family="Menlo-Bold, Menlo" font-weight="700"><tspan x="0" y="0">0.32</tspan></text><text transform="translate(357 209)" fill="#404040" font-size="24" font-family="Menlo-Bold, Menlo" font-weight="700"><tspan x="0" y="0">0.32</tspan></text><text transform="translate(447 209)" fill="#404040" font-size="24" font-family="Menlo-Bold, Menlo" font-weight="700"><tspan x="0" y="0">0.18</tspan></text><text transform="translate(177 261)" fill="#404040" font-size="24" font-family="Menlo-Bold, Menlo" font-weight="700"><tspan x="0" y="0">0.95</tspan></text><text transform="translate(267 261)" fill="#404040" font-size="24" font-family="Menlo-Bold, Menlo" font-weight="700"><tspan x="0" y="0">0.34</tspan></text><text transform="translate(344 261)" fill="#404040" font-size="24" font-family="Menlo-Bold, Menlo" font-weight="700"><tspan x="0" y="0">-0.14</tspan></text><text transform="translate(447 261)" fill="#404040" font-size="24" font-family="Menlo-Bold, Menlo" font-weight="700"><tspan x="0" y="0">0.15</tspan></text><text transform="translate(177 314)" fill="#404040" font-size="24" font-family="Menlo-Bold, Menlo" font-weight="700"><tspan x="0" y="0">0.72</tspan></text><text transform="translate(267 314)" fill="#404040" font-size="24" font-family="Menlo-Bold, Menlo" font-weight="700"><tspan x="0" y="0">0.32</tspan></text><text transform="translate(357 314)" fill="#404040" font-size="24" font-family="Menlo-Bold, Menlo" font-weight="700"><tspan x="0" y="0">0.32</tspan></text><text transform="translate(434 314)" fill="#404040" font-size="24" font-family="Menlo-Bold, Menlo" font-weight="700"><tspan x="0" y="0">-0.09</tspan></text><text transform="translate(177 366)" fill="#404040" font-size="24" font-family="Menlo-Bold, Menlo" font-weight="700"><tspan x="0" y="0">0.92</tspan></text><text transform="translate(254 366)" fill="#404040" font-size="24" font-family="Menlo-Bold, Menlo" font-weight="700"><tspan x="0" y="0">-0.04</tspan></text><text transform="translate(344 366)" fill="#404040" font-size="24" font-family="Menlo-Bold, Menlo" font-weight="700"><tspan x="0" y="0">-0.04</tspan></text><text transform="translate(447 366)" fill="#404040" font-size="24" font-family="Menlo-Bold, Menlo" font-weight="700"><tspan x="0" y="0">0.62</tspan></text><text transform="translate(177 461)" fill="#404040" font-size="24" font-family="Menlo-Bold, Menlo" font-weight="700"><tspan x="0" y="0">0.00</tspan></text><text transform="translate(267 461)" fill="#404040" font-size="24" font-family="Menlo-Bold, Menlo" font-weight="700"><tspan x="0" y="0">0.32</tspan></text><text transform="translate(357 461)" fill="#404040" font-size="24" font-family="Menlo-Bold, Menlo" font-weight="700"><tspan x="0" y="0">0.32</tspan></text><text transform="translate(447 461)" fill="#404040" font-size="24" font-family="Menlo-Bold, Menlo" font-weight="700"><tspan x="0" y="0">0.78</tspan></text><text transform="translate(177 513)" fill="#404040" font-size="24" font-family="Menlo-Bold, Menlo" font-weight="700"><tspan x="0" y="0">0.25</tspan></text><text transform="translate(267 513)" fill="#404040" font-size="24" font-family="Menlo-Bold, Menlo" font-weight="700"><tspan x="0" y="0">0.04</tspan></text><text transform="translate(344 513)" fill="#404040" font-size="24" font-family="Menlo-Bold, Menlo" font-weight="700"><tspan x="0" y="0">-0.14</tspan></text><text transform="translate(447 513)" fill="#404040" font-size="24" font-family="Menlo-Bold, Menlo" font-weight="700"><tspan x="0" y="0">0.15</tspan></text><text transform="translate(177 566)" fill="#404040" font-size="24" font-family="Menlo-Bold, Menlo" font-weight="700"><tspan x="0" y="0">0.72</tspan></text><text transform="translate(267 566)" fill="#404040" font-size="24" font-family="Menlo-Bold, Menlo" font-weight="700"><tspan x="0" y="0">0.32</tspan></text><text transform="translate(357 566)" fill="#404040" font-size="24" font-family="Menlo-Bold, Menlo" font-weight="700"><tspan x="0" y="0">0.32</tspan></text><text transform="translate(434 566)" fill="#404040" font-size="24" font-family="Menlo-Bold, Menlo" font-weight="700"><tspan x="0" y="0">-0.79</tspan></text><text transform="translate(177 619)" fill="#404040" font-size="24" font-family="Menlo-Bold, Menlo" font-weight="700"><tspan x="0" y="0">0.22</tspan></text><text transform="translate(254 619)" fill="#404040" font-size="24" font-family="Menlo-Bold, Menlo" font-weight="700"><tspan x="0" y="0">-0.66</tspan></text><text transform="translate(357 619)" fill="#404040" font-size="24" font-family="Menlo-Bold, Menlo" font-weight="700"><tspan x="0" y="0">0.14</tspan></text><text transform="translate(447 619)" fill="#404040" font-size="24" font-family="Menlo-Bold, Menlo" font-weight="700"><tspan x="0" y="0">0.62</tspan></text><text transform="translate(177 209)" fill="#404040" font-size="24" font-family="Menlo-Bold, Menlo" font-weight="700"><tspan x="0" y="0">0.12</tspan></text><text transform="translate(267 209)" fill="#404040" font-size="24" font-family="Menlo-Bold, Menlo" font-weight="700"><tspan x="0" y="0">0.32</tspan></text><text transform="translate(357 209)" fill="#404040" font-size="24" font-family="Menlo-Bold, Menlo" font-weight="700"><tspan x="0" y="0">0.32</tspan></text><text transform="translate(447 209)" fill="#404040" font-size="24" font-family="Menlo-Bold, Menlo" font-weight="700"><tspan x="0" y="0">0.18</tspan></text><text transform="translate(177 261)" fill="#404040" font-size="24" font-family="Menlo-Bold, Menlo" font-weight="700"><tspan x="0" y="0">0.95</tspan></text><text transform="translate(267 261)" fill="#404040" font-size="24" font-family="Menlo-Bold, Menlo" font-weight="700"><tspan x="0" y="0">0.34</tspan></text><text transform="translate(344 261)" fill="#404040" font-size="24" font-family="Menlo-Bold, Menlo" font-weight="700"><tspan x="0" y="0">-0.14</tspan></text><text transform="translate(447 261)" fill="#404040" font-size="24" font-family="Menlo-Bold, Menlo" font-weight="700"><tspan x="0" y="0">0.15</tspan></text><text transform="translate(177 314)" fill="#404040" font-size="24" font-family="Menlo-Bold, Menlo" font-weight="700"><tspan x="0" y="0">0.72</tspan></text><text transform="translate(267 314)" fill="#404040" font-size="24" font-family="Menlo-Bold, Menlo" font-weight="700"><tspan x="0" y="0">0.32</tspan></text><text transform="translate(357 314)" fill="#404040" font-size="24" font-family="Menlo-Bold, Menlo" font-weight="700"><tspan x="0" y="0">0.32</tspan></text><text transform="translate(434 314)" fill="#404040" font-size="24" font-family="Menlo-Bold, Menlo" font-weight="700"><tspan x="0" y="0">-0.09</tspan></text><text transform="translate(177 366)" fill="#404040" font-size="24" font-family="Menlo-Bold, Menlo" font-weight="700"><tspan x="0" y="0">0.92</tspan></text><text transform="translate(254 366)" fill="#404040" font-size="24" font-family="Menlo-Bold, Menlo" font-weight="700"><tspan x="0" y="0">-0.04</tspan></text><text transform="translate(344 366)" fill="#404040" font-size="24" font-family="Menlo-Bold, Menlo" font-weight="700"><tspan x="0" y="0">-0.04</tspan></text><text transform="translate(447 366)" fill="#404040" font-size="24" font-family="Menlo-Bold, Menlo" font-weight="700"><tspan x="0" y="0">0.62</tspan></text><text transform="translate(177 461)" fill="#404040" font-size="24" font-family="Menlo-Bold, Menlo" font-weight="700"><tspan x="0" y="0">0.00</tspan></text><text transform="translate(267 461)" fill="#404040" font-size="24" font-family="Menlo-Bold, Menlo" font-weight="700"><tspan x="0" y="0">0.32</tspan></text><text transform="translate(357 461)" fill="#404040" font-size="24" font-family="Menlo-Bold, Menlo" font-weight="700"><tspan x="0" y="0">0.32</tspan></text><text transform="translate(447 461)" fill="#404040" font-size="24" font-family="Menlo-Bold, Menlo" font-weight="700"><tspan x="0" y="0">0.78</tspan></text><text transform="translate(177 513)" fill="#404040" font-size="24" font-family="Menlo-Bold, Menlo" font-weight="700"><tspan x="0" y="0">0.25</tspan></text><text transform="translate(267 513)" fill="#404040" font-size="24" font-family="Menlo-Bold, Menlo" font-weight="700"><tspan x="0" y="0">0.04</tspan></text><text transform="translate(344 513)" fill="#404040" font-size="24" font-family="Menlo-Bold, Menlo" font-weight="700"><tspan x="0" y="0">-0.14</tspan></text><text transform="translate(447 513)" fill="#404040" font-size="24" font-family="Menlo-Bold, Menlo" font-weight="700"><tspan x="0" y="0">0.15</tspan></text><text transform="translate(177 566)" fill="#404040" font-size="24" font-family="Menlo-Bold, Menlo" font-weight="700"><tspan x="0" y="0">0.72</tspan></text><text transform="translate(267 566)" fill="#404040" font-size="24" font-family="Menlo-Bold, Menlo" font-weight="700"><tspan x="0" y="0">0.32</tspan></text><text transform="translate(357 566)" fill="#404040" font-size="24" font-family="Menlo-Bold, Menlo" font-weight="700"><tspan x="0" y="0">0.32</tspan></text><text transform="translate(434 566)" fill="#404040" font-size="24" font-family="Menlo-Bold, Menlo" font-weight="700"><tspan x="0" y="0">-0.79</tspan></text><text transform="translate(177 619)" fill="#404040" font-size="24" font-family="Menlo-Bold, Menlo" font-weight="700"><tspan x="0" y="0">0.22</tspan></text><text transform="translate(254 619)" fill="#404040" font-size="24" font-family="Menlo-Bold, Menlo" font-weight="700"><tspan x="0" y="0">-0.66</tspan></text><text transform="translate(357 619)" fill="#404040" font-size="24" font-family="Menlo-Bold, Menlo" font-weight="700"><tspan x="0" y="0">0.14</tspan></text><text transform="translate(447 619)" fill="#404040" font-size="24" font-family="Menlo-Bold, Menlo" font-weight="700"><tspan x="0" y="0">0.62</tspan></text><text transform="translate(584 210)" fill="#404040" font-size="25" font-family="Menlo-Bold, Menlo" font-weight="700"><tspan x="0" y="0">1</tspan></text><text transform="translate(631 210)" fill="#404040" font-size="25" font-family="Menlo-Bold, Menlo" font-weight="700"><tspan x="0" y="0">1</tspan></text><text transform="translate(677 210)" fill="#404040" font-size="25" font-family="Menlo-Bold, Menlo" font-weight="700"><tspan x="0" y="0">0</tspan></text><text transform="translate(724 210)" fill="#404040" font-size="25" font-family="Menlo-Bold, Menlo" font-weight="700"><tspan x="0" y="0">0</tspan></text><text transform="translate(584 262)" fill="#404040" font-size="25" font-family="Menlo-Bold, Menlo" font-weight="700"><tspan x="0" y="0">1</tspan></text><text transform="translate(631 262)" fill="#404040" font-size="25" font-family="Menlo-Bold, Menlo" font-weight="700"><tspan x="0" y="0">1</tspan></text><text transform="translate(677 262)" fill="#404040" font-size="25" font-family="Menlo-Bold, Menlo" font-weight="700"><tspan x="0" y="0">1</tspan></text><text transform="translate(724 262)" fill="#404040" font-size="25" font-family="Menlo-Bold, Menlo" font-weight="700"><tspan x="0" y="0">0</tspan></text><text transform="translate(584 315)" fill="#404040" font-size="25" font-family="Menlo-Bold, Menlo" font-weight="700"><tspan x="0" y="0">1</tspan></text><text transform="translate(631 315)" fill="#404040" font-size="25" font-family="Menlo-Bold, Menlo" font-weight="700"><tspan x="0" y="0">1</tspan></text><text transform="translate(677 315)" fill="#404040" font-size="25" font-family="Menlo-Bold, Menlo" font-weight="700"><tspan x="0" y="0">0</tspan></text><text transform="translate(724 315)" fill="#404040" font-size="25" font-family="Menlo-Bold, Menlo" font-weight="700"><tspan x="0" y="0">0</tspan></text><text transform="translate(584 367)" fill="#404040" font-size="25" font-family="Menlo-Bold, Menlo" font-weight="700"><tspan x="0" y="0">1</tspan></text><text transform="translate(631 367)" fill="#404040" font-size="25" font-family="Menlo-Bold, Menlo" font-weight="700"><tspan x="0" y="0">1</tspan></text><text transform="translate(677 367)" fill="#404040" font-size="25" font-family="Menlo-Bold, Menlo" font-weight="700"><tspan x="0" y="0">1</tspan></text><text transform="translate(724 367)" fill="#404040" font-size="25" font-family="Menlo-Bold, Menlo" font-weight="700"><tspan x="0" y="0">0</tspan></text><text transform="translate(584 462)" fill="#404040" font-size="25" font-family="Menlo-Bold, Menlo" font-weight="700"><tspan x="0" y="0">1</tspan></text><text transform="translate(631 462)" fill="#404040" font-size="25" font-family="Menlo-Bold, Menlo" font-weight="700"><tspan x="0" y="0">1</tspan></text><text transform="translate(677 462)" fill="#404040" font-size="25" font-family="Menlo-Bold, Menlo" font-weight="700"><tspan x="0" y="0">1</tspan></text><text transform="translate(724 462)" fill="#404040" font-size="25" font-family="Menlo-Bold, Menlo" font-weight="700"><tspan x="0" y="0">1</tspan></text><text transform="translate(584 514)" fill="#404040" font-size="25" font-family="Menlo-Bold, Menlo" font-weight="700"><tspan x="0" y="0">1</tspan></text><text transform="translate(631 514)" fill="#404040" font-size="25" font-family="Menlo-Bold, Menlo" font-weight="700"><tspan x="0" y="0">1</tspan></text><text transform="translate(677 514)" fill="#404040" font-size="25" font-family="Menlo-Bold, Menlo" font-weight="700"><tspan x="0" y="0">1</tspan></text><text transform="translate(724 514)" fill="#404040" font-size="25" font-family="Menlo-Bold, Menlo" font-weight="700"><tspan x="0" y="0">0</tspan></text><text transform="translate(584 567)" fill="#404040" font-size="25" font-family="Menlo-Bold, Menlo" font-weight="700"><tspan x="0" y="0">1</tspan></text><text transform="translate(631 567)" fill="#404040" font-size="25" font-family="Menlo-Bold, Menlo" font-weight="700"><tspan x="0" y="0">1</tspan></text><text transform="translate(677 567)" fill="#404040" font-size="25" font-family="Menlo-Bold, Menlo" font-weight="700"><tspan x="0" y="0">1</tspan></text><text transform="translate(724 567)" fill="#404040" font-size="25" font-family="Menlo-Bold, Menlo" font-weight="700"><tspan x="0" y="0">1</tspan></text><text transform="translate(584 620)" fill="#404040" font-size="25" font-family="Menlo-Bold, Menlo" font-weight="700"><tspan x="0" y="0">1</tspan></text><text transform="translate(631 620)" fill="#404040" font-size="25" font-family="Menlo-Bold, Menlo" font-weight="700"><tspan x="0" y="0">1</tspan></text><text transform="translate(677 620)" fill="#404040" font-size="25" font-family="Menlo-Bold, Menlo" font-weight="700"><tspan x="0" y="0">0</tspan></text><text transform="translate(724 620)" fill="#404040" font-size="25" font-family="Menlo-Bold, Menlo" font-weight="700"><tspan x="0" y="0">0</tspan></text><text transform="translate(817 210)" fill="#404040" font-size="25" font-family="Menlo-Bold, Menlo" font-weight="700"><tspan x="0" y="0">0</tspan></text><text transform="translate(817 262)" fill="#404040" font-size="25" font-family="Menlo-Bold, Menlo" font-weight="700"><tspan x="0" y="0">1</tspan></text><text transform="translate(817 315)" fill="#404040" font-size="25" font-family="Menlo-Bold, Menlo" font-weight="700"><tspan x="0" y="0">0</tspan></text><text transform="translate(817 367)" fill="#404040" font-size="25" font-family="Menlo-Bold, Menlo" font-weight="700"><tspan x="0" y="0">0</tspan></text><text transform="translate(817 462)" fill="#404040" font-size="25" font-family="Menlo-Bold, Menlo" font-weight="700"><tspan x="0" y="0">1</tspan></text><text transform="translate(817 514)" fill="#404040" font-size="25" font-family="Menlo-Bold, Menlo" font-weight="700"><tspan x="0" y="0">1</tspan></text><text transform="translate(817 567)" fill="#404040" font-size="25" font-family="Menlo-Bold, Menlo" font-weight="700"><tspan x="0" y="0">1</tspan></text><text transform="translate(817 620)" fill="#404040" font-size="25" font-family="Menlo-Bold, Menlo" font-weight="700"><tspan x="0" y="0">0</tspan></text><text transform="translate(770 210)" fill="#404040" font-size="25" font-family="Menlo-Bold, Menlo" font-weight="700"><tspan x="0" y="0">…</tspan></text><text transform="translate(770 262)" fill="#404040" font-size="25" font-family="Menlo-Bold, Menlo" font-weight="700"><tspan x="0" y="0">…</tspan></text><text transform="translate(770 367)" fill="#404040" font-size="25" font-family="Menlo-Bold, Menlo" font-weight="700"><tspan x="0" y="0">…</tspan></text><text transform="translate(770 315)" fill="#404040" font-size="25" font-family="Menlo-Bold, Menlo" font-weight="700"><tspan x="0" y="0">…</tspan></text><text transform="translate(770 462)" fill="#404040" font-size="25" font-family="Menlo-Bold, Menlo" font-weight="700"><tspan x="0" y="0">…</tspan></text><text transform="translate(770 514)" fill="#404040" font-size="25" font-family="Menlo-Bold, Menlo" font-weight="700"><tspan x="0" y="0">…</tspan></text><text transform="translate(770 567)" fill="#404040" font-size="25" font-family="Menlo-Bold, Menlo" font-weight="700"><tspan x="0" y="0">…</tspan></text><text transform="translate(770 620)" fill="#404040" font-size="25" font-family="Menlo-Bold, Menlo" font-weight="700"><tspan x="0" y="0">…</tspan></text><text transform="translate(537 210)" fill="#404040" font-size="25" font-family="Menlo-Bold, Menlo" font-weight="700"><tspan x="0" y="0">…</tspan></text><text transform="translate(537 262)" fill="#404040" font-size="25" font-family="Menlo-Bold, Menlo" font-weight="700"><tspan x="0" y="0">…</tspan></text><text transform="translate(537 367)" fill="#404040" font-size="25" font-family="Menlo-Bold, Menlo" font-weight="700"><tspan x="0" y="0">…</tspan></text><text transform="translate(537 315)" fill="#404040" font-size="25" font-family="Menlo-Bold, Menlo" font-weight="700"><tspan x="0" y="0">…</tspan></text><text transform="translate(537 462)" fill="#404040" font-size="25" font-family="Menlo-Bold, Menlo" font-weight="700"><tspan x="0" y="0">…</tspan></text><text transform="translate(537 514)" fill="#404040" font-size="25" font-family="Menlo-Bold, Menlo" font-weight="700"><tspan x="0" y="0">…</tspan></text><text transform="translate(537 567)" fill="#404040" font-size="25" font-family="Menlo-Bold, Menlo" font-weight="700"><tspan x="0" y="0">…</tspan></text><text transform="translate(537 620)" fill="#404040" font-size="25" font-family="Menlo-Bold, Menlo" font-weight="700"><tspan x="0" y="0">…</tspan></text><text transform="translate(528 408)" fill="#404040" font-size="25" font-family="Menlo-Bold, Menlo" font-weight="700"><tspan x="0" y="0">………</tspan></text><text transform="translate(73 148)" fill="#404040" font-size="25" font-family="Arial-BoldMT, Arial" font-weight="700"><tspan x="0" y="0">index</tspan></text><text transform="translate(584 210)" fill="#404040" font-size="25" font-family="Menlo-Bold, Menlo" font-weight="700"><tspan x="0" y="0">1</tspan></text><text transform="translate(584 262)" fill="#404040" font-size="25" font-family="Menlo-Bold, Menlo" font-weight="700"><tspan x="0" y="0">1</tspan></text><text transform="translate(584 315)" fill="#404040" font-size="25" font-family="Menlo-Bold, Menlo" font-weight="700"><tspan x="0" y="0">1</tspan></text><text transform="translate(584 367)" fill="#404040" font-size="25" font-family="Menlo-Bold, Menlo" font-weight="700"><tspan x="0" y="0">1</tspan></text><text transform="translate(584 462)" fill="#404040" font-size="25" font-family="Menlo-Bold, Menlo" font-weight="700"><tspan x="0" y="0">1</tspan></text><text transform="translate(584 514)" fill="#404040" font-size="25" font-family="Menlo-Bold, Menlo" font-weight="700"><tspan x="0" y="0">1</tspan></text><text transform="translate(584 567)" fill="#404040" font-size="25" font-family="Menlo-Bold, Menlo" font-weight="700"><tspan x="0" y="0">1</tspan></text><text transform="translate(584 620)" fill="#404040" font-size="25" font-family="Menlo-Bold, Menlo" font-weight="700"><tspan x="0" y="0">1</tspan></text><g transform="translate(50.734 101)" fill="none"><path d="M0,0H850.273V554.177H0Z" stroke="none"/><path d="M 1.99993896484375 2 L 1.99993896484375 552.1770629882812 L 848.2733764648438 552.1770629882812 L 848.2733764648438 2 L 1.99993896484375 2 M -6.103515625e-05 0 L 850.2733764648438 0 L 850.2733764648438 554.1770629882812 L -6.103515625e-05 554.1770629882812 L -6.103515625e-05 0 Z" stroke="none" fill="#393939"/></g><text transform="translate(74 210)" fill="#404040" font-size="25" font-family="Menlo-Bold, Menlo" font-weight="700"><tspan x="0" y="0">1</tspan></text><text transform="translate(74 262)" fill="#404040" font-size="25" font-family="Menlo-Bold, Menlo" font-weight="700"><tspan x="0" y="0">2</tspan></text><text transform="translate(74 315)" fill="#404040" font-size="25" font-family="Menlo-Bold, Menlo" font-weight="700"><tspan x="0" y="0">3</tspan></text><text transform="translate(74 367)" fill="#404040" font-size="25" font-family="Menlo-Bold, Menlo" font-weight="700"><tspan x="0" y="0">4</tspan></text><text transform="translate(74 462)" fill="#404040" font-size="25" font-family="Menlo-Bold, Menlo" font-weight="700"><tspan x="0" y="0">997</tspan></text><text transform="translate(74 514)" fill="#404040" font-size="25" font-family="Menlo-Bold, Menlo" font-weight="700"><tspan x="0" y="0">998</tspan></text><text transform="translate(74 567)" fill="#404040" font-size="25" font-family="Menlo-Bold, Menlo" font-weight="700"><tspan x="0" y="0">999</tspan></text><text transform="translate(74 620)" fill="#404040" font-size="25" font-family="Menlo-Bold, Menlo" font-weight="700"><tspan x="0" y="0">1000</tspan></text><text transform="translate(51 62)" fill="#404040" font-size="29" font-family="Arial-BoldMT, Arial" font-weight="700"><tspan x="0" y="0">Tensorplane Dataset</tspan></text><text transform="translate(936 346)" fill="#404040" font-size="20" font-family="HelveticaNeue-Bold, Helvetica Neue" font-weight="700"><tspan x="0" y="0" text-decoration="underline">Utilize multi-dimensional tensor features</tspan><tspan y="0" font-family="HelveticaNeue-Medium, Helvetica Neue" font-weight="500">,</tspan><tspan font-family="HelveticaNeue-Medium, Helvetica Neue" font-weight="500"><tspan x="0" y="25">such as vector embeddings or images</tspan><tspan x="0" y="50">for NLP or CV related machine learning tasks</tspan></tspan></text><text transform="translate(936 213)" fill="#404040" font-size="20" font-family="HelveticaNeue-Bold, Helvetica Neue" font-weight="700"><tspan text-decoration="underline"><tspan x="0" y="0">Encapsulate heterogeneous feature tensors</tspan></tspan><tspan font-family="HelveticaNeue-Medium, Helvetica Neue" font-weight="500"><tspan x="0" y="25">from a backing tensor library into a uniform</tspan><tspan x="0" y="50">NumPy array-like Dataset interface with</tspan><tspan x="0" y="75">expressive and familiar indexing syntax</tspan></tspan></text><text transform="translate(936 454)" fill="#404040" font-size="20" font-family="HelveticaNeue-Bold, Helvetica Neue" font-weight="700"><tspan x="0" y="0" text-decoration="underline">Easily port data pipelines</tspan><tspan y="0" xml:space="preserve" font-family="HelveticaNeue-Medium, Helvetica Neue" font-weight="500"> for common machine</tspan><tspan font-family="HelveticaNeue-Medium, Helvetica Neue" font-weight="500"><tspan x="0" y="25">learning and data mining tasks without modifying</tspan><tspan x="0" y="50">more than one line of code. TensorPlane currently </tspan><tspan x="0" y="75">supports several backing tensor/array libraries</tspan><tspan x="0" y="100"></tspan></tspan></text><text transform="translate(936 592)" fill="#404040" font-size="20" font-family="HelveticaNeue-Bold, Helvetica Neue" font-weight="700"><tspan x="0" y="0" text-decoration="underline">Extend and modify the codebase</tspan><tspan y="0" xml:space="preserve" font-family="HelveticaNeue-Medium, Helvetica Neue" font-weight="500"> with support</tspan><tspan font-family="HelveticaNeue-Medium, Helvetica Neue" font-weight="500"><tspan x="0" y="25">for implementing additional backend tensor</tspan><tspan x="0" y="50">libraries and designing custom indexing grammars </tspan></tspan></text><text transform="translate(936 127)" fill="#404040" font-size="29" font-family="Arial-BoldMT, Arial" font-weight="700"><tspan x="0" y="0">The Tensorplane framework</tspan><tspan x="0" y="33">enables developers to…</tspan></text></g></svg>
